<?xml version="1.0" standalone="no"?>
<svg viewBox="0 0 200 200" xmlns="http://www.w3.org/2000/svg">
  <path fill="#000000" d="M44.4,-76.2C58,-69.1,69.8,-58.1,76.9,-44.7C84,-31.4,86.5,-15.7,86.5,0C86.4,15.6,83.8,31.3,76.9,45C70,58.8,58.9,70.7,45.3,78.8C31.8,86.9,15.9,91.3,2.3,87.2C-11.2,83.2,-22.4,70.7,-36,62.7C-49.6,54.6,-65.6,50.8,-73,41.1C-80.4,31.4,-79.4,15.7,-75.3,2.3C-71.2,-11,-64.2,-22,-57.9,-33.7C-51.6,-45.3,-46,-57.7,-36.5,-67.2C-27,-76.6,-13.5,-83.2,1,-84.9C15.4,-86.5,30.8,-83.3,44.4,-76.2Z" transform="translate(100 100)" />
</svg>
